<svg width="20" height="22" viewBox="0 0 20 22" fill="none" xmlns="http://www.w3.org/2000/svg">
<path d="M9.42574 0.0230904C7.61192 0.215611 6.02014 1.33073 5.20928 2.98341C4.88245 3.65099 4.72526 4.26355 4.6579 5.15115L4.64293 5.34617H3.53268H2.42492L2.23531 5.40868C1.75877 5.5687 1.42694 5.95124 1.34212 6.43629C1.32216 6.5438 1.00779 9.65414 0.641036 13.3445C0.0123094 19.6827 -0.0226198 20.0653 0.00731953 20.2278C0.0946427 20.7253 0.513794 21.1679 1.00779 21.2854C1.14751 21.3179 2.20287 21.3229 9.94968 21.3229C19.68 21.3229 18.8816 21.3354 19.2209 21.1579C19.428 21.0479 19.68 20.7904 19.7748 20.5953C19.8571 20.4253 19.917 20.1953 19.917 20.0478C19.917 19.9853 19.7423 18.1976 19.5303 16.0723C19.3182 13.9471 19.0213 10.9668 18.8716 9.44662C18.7219 7.92645 18.5872 6.59381 18.5722 6.4838C18.5373 6.22377 18.41 5.96124 18.2254 5.76622C18.0483 5.5812 17.8911 5.48119 17.6591 5.40618C17.4719 5.34617 17.4595 5.34617 16.3866 5.34617H15.3038L15.2914 5.23866C15.2839 5.18115 15.2739 5.03114 15.2664 4.90862C15.2265 4.23105 15.0044 3.47597 14.6502 2.8159C13.8992 1.41824 12.5819 0.425634 11.0599 0.108099C10.5759 0.00558853 9.90976 -0.0269146 9.42574 0.0230904ZM10.6857 1.39574C12.4571 1.71327 13.8443 3.28595 13.9466 5.08864L13.9616 5.34617H9.97463H5.98771L6.00268 5.06364C6.0401 4.39607 6.27962 3.70349 6.68629 3.08342C6.91084 2.74339 7.41232 2.24333 7.75413 2.01581C8.65231 1.42074 9.64779 1.21072 10.6857 1.39574ZM4.65291 7.08886C4.66289 7.55891 4.69033 7.65642 4.85001 7.81644C4.99222 7.95896 5.10949 8.00896 5.32156 8.00896C5.53363 8.00896 5.65089 7.95896 5.7931 7.81644C5.95278 7.65892 5.97773 7.55891 5.9902 7.08886L6.00018 6.67132H9.97713H13.9541V7.02135C13.9541 7.21137 13.9665 7.4264 13.9815 7.49641C14.0189 7.67642 14.1412 7.83894 14.3034 7.93145C14.4231 7.99896 14.463 8.00896 14.6277 8.00896C14.8498 8.00646 14.967 7.95646 15.1117 7.79644C15.2664 7.62392 15.2839 7.55891 15.2964 7.08886L15.3063 6.67132L16.2819 6.67632L17.2599 6.68382L17.3023 7.14637C17.3272 7.4014 17.3796 7.94145 17.422 8.3465C17.5443 9.55163 17.6216 10.3292 17.6715 10.8468C17.7389 11.5443 18.183 15.9723 18.2703 16.8474C18.4525 18.6351 18.5697 19.8403 18.5697 19.9153V19.9978H9.94968H1.32964V19.9403C1.32964 19.8728 2.62202 6.86384 2.64198 6.75132L2.65446 6.67132H3.64745H4.64293L4.65291 7.08886Z" fill="#012433"/>
<path d="M7.57915 9.37402C6.95791 9.45903 6.42898 9.71656 5.98737 10.1541C5.5308 10.6067 5.2339 11.1342 5.10666 11.7118C5.05426 11.9518 5.04678 12.5344 5.09418 12.7719C5.18151 13.2219 5.40356 13.727 5.68798 14.1295C5.91003 14.4446 6.71839 15.2422 8.93889 17.3374C9.26074 17.6424 9.56014 17.9075 9.60255 17.93C9.8271 18.045 10.0741 18.03 10.2737 17.8899C10.3336 17.8449 10.7852 17.4524 11.2742 17.0124C13.2377 15.2522 13.6943 14.7921 14.1259 14.147C14.6748 13.3245 14.9268 12.5469 14.8943 11.7718C14.8519 10.7417 14.4028 9.95658 13.6419 9.58154C13.315 9.42153 13.083 9.36652 12.7187 9.36652C12.075 9.36402 11.7482 9.52654 10.7228 10.3566C10.0242 10.9217 9.09358 11.7918 9.01125 11.9543C8.85157 12.2643 8.97881 12.6619 9.29068 12.8344C9.40296 12.8969 9.45285 12.9094 9.60006 12.9094C9.85205 12.9094 9.93937 12.8544 10.4683 12.3568C11.1095 11.7518 11.9877 11.0242 12.3495 10.7967C12.4692 10.7217 12.5142 10.7092 12.6713 10.7017C12.8759 10.6892 12.9707 10.7142 13.1404 10.8217C13.4423 11.0142 13.6319 11.6043 13.557 12.1268C13.4747 12.6919 13.1678 13.2869 12.6314 13.9095C12.4443 14.1295 11.7208 14.8221 11.0097 15.4622C10.3934 16.0172 9.97679 16.3873 9.94186 16.4073C9.91941 16.4198 9.86203 16.3823 9.76722 16.2923C8.0482 14.6771 6.97288 13.632 6.81819 13.427C6.68097 13.2444 6.52129 12.9494 6.46141 12.7719C6.39405 12.5744 6.3666 12.2893 6.39405 12.0968C6.44644 11.7218 6.59614 11.4417 6.90551 11.1292C7.23734 10.7942 7.53424 10.6792 8.01576 10.7042C8.24031 10.7142 8.32015 10.7317 8.57713 10.8217C8.90896 10.9392 8.9863 10.9417 9.21334 10.8442C9.35555 10.7817 9.47281 10.6617 9.54267 10.5016C9.58259 10.4166 9.59008 10.3491 9.58259 10.2091C9.56762 9.88158 9.40296 9.70406 8.97133 9.54654C8.53721 9.38902 7.97585 9.31901 7.57915 9.37402Z" fill="#012433"/>
</svg>
