<svg width="7" height="13" viewBox="0 0 7 13" fill="none" xmlns="http://www.w3.org/2000/svg">
<path fill-rule="evenodd" clip-rule="evenodd" d="M4.36616 0.0514263C3.44958 0.205762 2.7291 0.702011 2.31383 1.46505C2.02862 1.98897 1.93617 2.51426 1.93617 3.61018V4.59552H1.03834C0.415771 4.59552 0.119602 4.61643 0.0723235 4.66371C-0.0241078 4.76014 -0.0241078 7.04483 0.0723235 7.14126C0.119602 7.18854 0.415771 7.20945 1.03834 7.20945H1.93617V9.93504C1.93617 12.5716 1.93975 12.6625 2.04607 12.7194C2.11136 12.7543 2.61767 12.7783 3.29217 12.7783C4.24927 12.7783 4.44242 12.7642 4.51765 12.689C4.5963 12.6103 4.60692 12.2789 4.60692 9.90458V7.20945H5.62573C6.47611 7.20945 6.65926 7.19467 6.73381 7.12018C6.86684 6.98709 6.86684 4.81787 6.73381 4.68479C6.65926 4.61029 6.47611 4.59552 5.62573 4.59552H4.60692L4.60704 3.81418C4.60715 2.5666 4.67943 2.4925 5.93861 2.44937C6.3782 2.43431 6.76984 2.39646 6.80888 2.36527C6.86133 2.32344 6.87991 2.02068 6.87991 1.20951C6.87991 0.180986 6.87286 0.106603 6.77001 0.0515399C6.64176 -0.0171042 4.77365 -0.0172178 4.36616 0.0514263Z" fill="#012433"/>
</svg>
