<svg width="25" height="23" viewBox="0 0 25 23" fill="none" xmlns="http://www.w3.org/2000/svg">
<path d="M15.4515 14.896C15.3969 14.8883 15.3412 14.8945 15.2894 14.9139C15.2376 14.9333 15.1912 14.9654 15.1542 15.0074C15.1166 15.0487 15.089 15.0985 15.0737 15.1529C15.0583 15.2072 15.0558 15.2645 15.0661 15.3201C15.2591 16.3623 15.9089 17.7927 17.9036 18.6832C18.14 18.7882 18.5051 18.8701 18.9681 18.9729C20.7013 19.3582 23.5997 20.0036 24.3117 22.7336C24.3236 22.7792 24.3442 22.822 24.3722 22.8594C24.4002 22.8969 24.4352 22.9283 24.475 22.9519C24.5148 22.9755 24.5588 22.9908 24.6044 22.997C24.65 23.0031 24.6963 22.9999 24.7407 22.9877C24.7852 22.9754 24.8268 22.9542 24.8632 22.9254C24.8997 22.8966 24.9303 22.8607 24.9532 22.8198C24.9762 22.7788 24.9911 22.7337 24.997 22.6868C25.003 22.6399 24.9999 22.5923 24.988 22.5467C24.1648 19.3934 20.881 18.6624 19.1164 18.2699C18.708 18.1787 18.3547 18.1003 18.182 18.0227C16.9832 17.4879 16.2089 16.6944 15.8732 15.6608C19.2038 15.9152 20.7118 14.5517 20.7782 14.4899C20.8192 14.4518 20.8508 14.4042 20.8704 14.3511C20.89 14.298 20.8971 14.2409 20.8911 14.1844C20.8851 14.128 20.8662 14.0738 20.8358 14.0263C20.8055 13.9788 20.7647 13.9394 20.7167 13.9113C18.7947 12.7828 18.7947 8.8834 18.7947 7.41493C18.7947 3.30854 16.1033 0.0531897 12.6531 0.00215634C12.6203 0.00103209 12.5874 0.000313256 12.5545 0C9.05394 0.0201258 6.20523 3.27907 6.20523 7.26543C6.20523 8.73389 6.20523 12.634 4.28324 13.7618C4.2337 13.7913 4.19193 13.8329 4.16157 13.8828C4.13121 13.9328 4.11318 13.9896 4.10905 14.0483C4.10491 14.107 4.11479 14.1659 4.13784 14.2198C4.16088 14.2737 4.19639 14.321 4.24128 14.3576C4.33779 14.4345 6.47101 16.1122 9.09591 15.6026C8.7448 16.593 7.98104 17.3549 6.81722 17.8746C6.64866 17.9501 6.31294 18.0327 5.92407 18.1276C4.14755 18.5618 0.840026 19.3704 0.0119196 22.546C2.52032e-05 22.5916 -0.00300574 22.6392 0.00299977 22.686C0.00900527 22.7329 0.0239296 22.7781 0.0469207 22.819C0.0933533 22.9016 0.169825 22.9619 0.259512 22.9866C0.349199 23.0113 0.444756 22.9983 0.525161 22.9506C0.605565 22.9029 0.664231 22.8243 0.688253 22.7321C1.40795 19.9691 4.3371 19.254 6.08633 18.8256C6.52486 18.7185 6.87107 18.6336 7.09628 18.5337C9.09101 17.6432 9.74007 16.2128 9.93381 15.1706C9.9453 15.1095 9.94109 15.0464 9.92159 14.9876C9.90208 14.9287 9.86796 14.8761 9.8226 14.8349C9.77759 14.7934 9.72282 14.7646 9.6637 14.7515C9.60457 14.7384 9.54315 14.7414 9.48548 14.7601C7.59217 15.3725 5.84293 14.5301 5.07847 14.0629C6.90464 12.4917 6.90464 8.87549 6.90464 7.26543C6.90464 3.67368 9.44072 0.736749 12.5839 0.717342L12.658 0.721655C15.7578 0.766938 18.0953 3.64421 18.0953 7.41493C18.0953 9.02572 18.0953 12.6498 19.9291 14.2211C19.2976 14.5919 17.8575 15.1921 15.4515 14.896Z" fill="#007A64"/>
</svg>
