<svg width="243" height="52" viewBox="0 0 243 52" fill="none" xmlns="http://www.w3.org/2000/svg">
<g filter="url(#filter0_i_593_24)">
<path d="M115.308 25.2441H115.248C115.075 25.8975 114.648 26.4441 113.968 26.8841C113.302 27.3108 112.435 27.5241 111.368 27.5241C110.515 27.5241 109.728 27.3708 109.008 27.0641C108.302 26.7441 107.695 26.2841 107.188 25.6841C106.682 25.0708 106.282 24.3175 105.988 23.4241C105.708 22.5175 105.568 21.4775 105.568 20.3041C105.568 19.1441 105.708 18.1175 105.988 17.2241C106.268 16.3175 106.668 15.5641 107.188 14.9641C107.708 14.3508 108.335 13.8841 109.068 13.5641C109.802 13.2441 110.615 13.0841 111.508 13.0841C112.762 13.0841 113.808 13.3641 114.648 13.9241C115.488 14.4841 116.135 15.2241 116.588 16.1441L115.208 16.9841C114.888 16.2375 114.408 15.6508 113.768 15.2241C113.142 14.7975 112.388 14.5841 111.508 14.5841C110.895 14.5841 110.335 14.6975 109.828 14.9241C109.322 15.1375 108.882 15.4441 108.508 15.8441C108.148 16.2441 107.868 16.7241 107.668 17.2841C107.468 17.8441 107.368 18.4708 107.368 19.1641V21.4241C107.368 22.1175 107.468 22.7508 107.668 23.3241C107.868 23.8841 108.148 24.3641 108.508 24.7641C108.882 25.1641 109.335 25.4775 109.868 25.7041C110.402 25.9175 111.002 26.0241 111.668 26.0241C112.148 26.0241 112.602 25.9641 113.028 25.8441C113.468 25.7108 113.848 25.5175 114.168 25.2641C114.502 25.0108 114.762 24.6975 114.948 24.3241C115.135 23.9375 115.228 23.4841 115.228 22.9641V21.5841H112.148V20.1041H116.868V27.2841H115.308V25.2441ZM122.174 27.2841V13.3241H130.694V14.8041H123.854V19.4841H130.294V20.9641H123.854V25.8041H130.694V27.2841H122.174ZM146.715 15.5241H146.615L145.435 17.8641L142.095 23.9441L138.755 17.8641L137.575 15.5241H137.475V27.2841H135.835V13.3241H138.075L142.075 20.8441H142.175L146.195 13.3241H148.355V27.2841H146.715V15.5241ZM154.065 27.2841V13.3241H155.745V25.8041H161.685V27.2841H154.065ZM175.196 27.2841L173.796 23.1641H168.156L166.756 27.2841H165.056L169.936 13.3241H172.076L176.956 27.2841H175.196ZM171.016 14.8841H170.916L168.556 21.6841H173.376L171.016 14.8841ZM183.374 27.2841V21.7641L178.574 13.3241H180.494L184.214 20.0441H184.274L187.994 13.3241H189.914L185.054 21.7041V27.2841H183.374Z" fill="#555555"/>
</g>
<g filter="url(#filter1_i_593_24)">
<path d="M112.998 38.2632V34.0752H114.666C115.042 34.0752 115.33 34.1832 115.53 34.3992C115.734 34.6112 115.836 34.9032 115.836 35.2752C115.836 35.6472 115.734 35.9412 115.53 36.1572C115.33 36.3692 115.042 36.4752 114.666 36.4752H113.502V38.2632H112.998ZM113.502 36.0312H114.666C114.866 36.0312 115.02 35.9792 115.128 35.8752C115.24 35.7712 115.296 35.6232 115.296 35.4312V35.1192C115.296 34.9272 115.24 34.7792 115.128 34.6752C115.02 34.5712 114.866 34.5192 114.666 34.5192H113.502V36.0312ZM118.996 37.7592H118.972C118.94 37.8312 118.9 37.9032 118.852 37.9752C118.808 38.0432 118.752 38.1052 118.684 38.1612C118.616 38.2132 118.534 38.2552 118.438 38.2872C118.342 38.3192 118.23 38.3352 118.102 38.3352C117.782 38.3352 117.528 38.2332 117.34 38.0292C117.152 37.8212 117.058 37.5292 117.058 37.1532V35.1672H117.538V37.0692C117.538 37.6252 117.774 37.9032 118.246 37.9032C118.342 37.9032 118.434 37.8912 118.522 37.8672C118.614 37.8432 118.694 37.8072 118.762 37.7592C118.834 37.7112 118.89 37.6512 118.93 37.5792C118.974 37.5032 118.996 37.4132 118.996 37.3092V35.1672H119.476V38.2632H118.996V37.7592ZM120.998 38.2632V35.1672H121.478V35.7372H121.508C121.564 35.5892 121.664 35.4572 121.808 35.3412C121.952 35.2252 122.15 35.1672 122.402 35.1672H122.588V35.6472H122.306C122.046 35.6472 121.842 35.6972 121.694 35.7972C121.55 35.8932 121.478 36.0152 121.478 36.1632V38.2632H120.998ZM124.836 38.3352C124.624 38.3352 124.432 38.2972 124.26 38.2212C124.092 38.1452 123.946 38.0372 123.822 37.8972C123.702 37.7532 123.608 37.5832 123.54 37.3872C123.476 37.1872 123.444 36.9632 123.444 36.7152C123.444 36.4712 123.476 36.2492 123.54 36.0492C123.608 35.8492 123.702 35.6792 123.822 35.5392C123.946 35.3952 124.092 35.2852 124.26 35.2092C124.432 35.1332 124.624 35.0952 124.836 35.0952C125.044 35.0952 125.23 35.1332 125.394 35.2092C125.558 35.2852 125.698 35.3912 125.814 35.5272C125.93 35.6592 126.018 35.8172 126.078 36.0012C126.142 36.1852 126.174 36.3872 126.174 36.6072V36.8352H123.948V36.9792C123.948 37.1112 123.968 37.2352 124.008 37.3512C124.052 37.4632 124.112 37.5612 124.188 37.6452C124.268 37.7292 124.364 37.7952 124.476 37.8432C124.592 37.8912 124.722 37.9152 124.866 37.9152C125.062 37.9152 125.232 37.8692 125.376 37.7772C125.524 37.6852 125.638 37.5532 125.718 37.3812L126.06 37.6272C125.96 37.8392 125.804 38.0112 125.592 38.1432C125.38 38.2712 125.128 38.3352 124.836 38.3352ZM124.836 35.4972C124.704 35.4972 124.584 35.5212 124.476 35.5692C124.368 35.6132 124.274 35.6772 124.194 35.7612C124.118 35.8452 124.058 35.9452 124.014 36.0612C123.97 36.1732 123.948 36.2972 123.948 36.4332V36.4752H125.658V36.4092C125.658 36.1332 125.582 35.9132 125.43 35.7492C125.282 35.5812 125.084 35.4972 124.836 35.4972ZM129.431 34.0752H130.835C131.095 34.0752 131.331 34.1192 131.543 34.2072C131.755 34.2952 131.935 34.4272 132.083 34.6032C132.235 34.7752 132.351 34.9932 132.431 35.2572C132.511 35.5172 132.551 35.8212 132.551 36.1692C132.551 36.5172 132.511 36.8232 132.431 37.0872C132.351 37.3472 132.235 37.5652 132.083 37.7412C131.935 37.9132 131.755 38.0432 131.543 38.1312C131.331 38.2192 131.095 38.2632 130.835 38.2632H129.431V34.0752ZM130.835 37.8192C131.007 37.8192 131.165 37.7912 131.309 37.7352C131.453 37.6752 131.577 37.5892 131.681 37.4772C131.785 37.3652 131.865 37.2292 131.921 37.0692C131.981 36.9052 132.011 36.7192 132.011 36.5112V35.8272C132.011 35.6192 131.981 35.4352 131.921 35.2752C131.865 35.1112 131.785 34.9732 131.681 34.8612C131.577 34.7492 131.453 34.6652 131.309 34.6092C131.165 34.5492 131.007 34.5192 130.835 34.5192H129.935V37.8192H130.835ZM134.149 34.4412C134.045 34.4412 133.969 34.4172 133.921 34.3692C133.877 34.3172 133.855 34.2512 133.855 34.1712V34.0932C133.855 34.0132 133.877 33.9492 133.921 33.9012C133.969 33.8492 134.045 33.8232 134.149 33.8232C134.253 33.8232 134.327 33.8492 134.371 33.9012C134.419 33.9492 134.443 34.0132 134.443 34.0932V34.1712C134.443 34.2512 134.419 34.3172 134.371 34.3692C134.327 34.4172 134.253 34.4412 134.149 34.4412ZM133.909 35.1672H134.389V38.2632H133.909V35.1672ZM138.159 38.2632C137.979 38.2632 137.849 38.2152 137.769 38.1192C137.693 38.0232 137.645 37.9032 137.625 37.7592H137.595C137.527 37.9512 137.415 38.0952 137.259 38.1912C137.103 38.2872 136.917 38.3352 136.701 38.3352C136.373 38.3352 136.117 38.2512 135.933 38.0832C135.753 37.9152 135.663 37.6872 135.663 37.3992C135.663 37.1072 135.769 36.8832 135.981 36.7272C136.197 36.5712 136.531 36.4932 136.983 36.4932H137.595V36.1872C137.595 35.9672 137.535 35.7992 137.415 35.6832C137.295 35.5672 137.111 35.5092 136.863 35.5092C136.675 35.5092 136.517 35.5512 136.389 35.6352C136.265 35.7192 136.161 35.8312 136.077 35.9712L135.789 35.7012C135.873 35.5332 136.007 35.3912 136.191 35.2752C136.375 35.1552 136.607 35.0952 136.887 35.0952C137.263 35.0952 137.555 35.1872 137.763 35.3712C137.971 35.5552 138.075 35.8112 138.075 36.1392V37.8432H138.429V38.2632H138.159ZM136.779 37.9272C136.899 37.9272 137.009 37.9132 137.109 37.8852C137.209 37.8572 137.295 37.8172 137.367 37.7652C137.439 37.7132 137.495 37.6532 137.535 37.5852C137.575 37.5172 137.595 37.4432 137.595 37.3632V36.8532H136.959C136.683 36.8532 136.481 36.8932 136.353 36.9732C136.229 37.0532 136.167 37.1692 136.167 37.3212V37.4472C136.167 37.5992 136.221 37.7172 136.329 37.8012C136.441 37.8852 136.591 37.9272 136.779 37.9272ZM139.614 38.2632V35.1672H140.094V35.6712H140.118C140.154 35.5912 140.194 35.5172 140.238 35.4492C140.286 35.3772 140.342 35.3152 140.406 35.2632C140.474 35.2112 140.552 35.1712 140.64 35.1432C140.728 35.1112 140.832 35.0952 140.952 35.0952C141.156 35.0952 141.344 35.1452 141.516 35.2452C141.688 35.3412 141.816 35.5012 141.9 35.7252H141.912C141.968 35.5572 142.072 35.4112 142.224 35.2872C142.38 35.1592 142.59 35.0952 142.854 35.0952C143.17 35.0952 143.416 35.1992 143.592 35.4072C143.772 35.6112 143.862 35.9012 143.862 36.2772V38.2632H143.382V36.3612C143.382 36.0852 143.328 35.8772 143.22 35.7372C143.112 35.5972 142.94 35.5272 142.704 35.5272C142.608 35.5272 142.516 35.5392 142.428 35.5632C142.344 35.5872 142.268 35.6232 142.2 35.6712C142.132 35.7192 142.078 35.7812 142.038 35.8572C141.998 35.9292 141.978 36.0152 141.978 36.1152V38.2632H141.498V36.3612C141.498 36.0852 141.444 35.8772 141.336 35.7372C141.228 35.5972 141.06 35.5272 140.832 35.5272C140.736 35.5272 140.644 35.5392 140.556 35.5632C140.468 35.5872 140.39 35.6232 140.322 35.6712C140.254 35.7192 140.198 35.7812 140.154 35.8572C140.114 35.9292 140.094 36.0152 140.094 36.1152V38.2632H139.614ZM146.522 38.3352C146.314 38.3352 146.124 38.2972 145.952 38.2212C145.78 38.1452 145.632 38.0372 145.508 37.8972C145.388 37.7532 145.294 37.5832 145.226 37.3872C145.158 37.1872 145.124 36.9632 145.124 36.7152C145.124 36.4712 145.158 36.2492 145.226 36.0492C145.294 35.8492 145.388 35.6792 145.508 35.5392C145.632 35.3952 145.78 35.2852 145.952 35.2092C146.124 35.1332 146.314 35.0952 146.522 35.0952C146.73 35.0952 146.918 35.1332 147.086 35.2092C147.258 35.2852 147.406 35.3952 147.53 35.5392C147.654 35.6792 147.75 35.8492 147.818 36.0492C147.886 36.2492 147.92 36.4712 147.92 36.7152C147.92 36.9632 147.886 37.1872 147.818 37.3872C147.75 37.5832 147.654 37.7532 147.53 37.8972C147.406 38.0372 147.258 38.1452 147.086 38.2212C146.918 38.2972 146.73 38.3352 146.522 38.3352ZM146.522 37.9092C146.782 37.9092 146.994 37.8292 147.158 37.6692C147.322 37.5092 147.404 37.2652 147.404 36.9372V36.4932C147.404 36.1652 147.322 35.9212 147.158 35.7612C146.994 35.6012 146.782 35.5212 146.522 35.5212C146.262 35.5212 146.05 35.6012 145.886 35.7612C145.722 35.9212 145.64 36.1652 145.64 36.4932V36.9372C145.64 37.2652 145.722 37.5092 145.886 37.6692C146.05 37.8292 146.262 37.9092 146.522 37.9092ZM149.209 38.2632V35.1672H149.689V35.6712H149.713C149.789 35.4952 149.895 35.3552 150.031 35.2512C150.171 35.1472 150.357 35.0952 150.589 35.0952C150.909 35.0952 151.161 35.1992 151.345 35.4072C151.533 35.6112 151.627 35.9012 151.627 36.2772V38.2632H151.147V36.3612C151.147 35.8052 150.913 35.5272 150.445 35.5272C150.349 35.5272 150.255 35.5392 150.163 35.5632C150.075 35.5872 149.995 35.6232 149.923 35.6712C149.851 35.7192 149.793 35.7812 149.749 35.8572C149.709 35.9292 149.689 36.0152 149.689 36.1152V38.2632H149.209ZM155.1 37.7592H155.076C154.888 38.1432 154.586 38.3352 154.17 38.3352C153.978 38.3352 153.804 38.2972 153.648 38.2212C153.492 38.1452 153.358 38.0372 153.246 37.8972C153.138 37.7572 153.054 37.5872 152.994 37.3872C152.938 37.1872 152.91 36.9632 152.91 36.7152C152.91 36.4672 152.938 36.2432 152.994 36.0432C153.054 35.8432 153.138 35.6732 153.246 35.5332C153.358 35.3932 153.492 35.2852 153.648 35.2092C153.804 35.1332 153.978 35.0952 154.17 35.0952C154.386 35.0952 154.57 35.1432 154.722 35.2392C154.878 35.3312 154.996 35.4752 155.076 35.6712H155.1V33.8232H155.58V38.2632H155.1V37.7592ZM154.302 37.9032C154.41 37.9032 154.512 37.8892 154.608 37.8612C154.708 37.8332 154.794 37.7932 154.866 37.7412C154.938 37.6852 154.994 37.6192 155.034 37.5432C155.078 37.4632 155.1 37.3732 155.1 37.2732V36.1212C155.1 36.0372 155.078 35.9592 155.034 35.8872C154.994 35.8112 154.938 35.7472 154.866 35.6952C154.794 35.6432 154.708 35.6032 154.608 35.5752C154.512 35.5432 154.41 35.5272 154.302 35.5272C154.03 35.5272 153.816 35.6132 153.66 35.7852C153.504 35.9532 153.426 36.1752 153.426 36.4512V36.9792C153.426 37.2552 153.504 37.4792 153.66 37.6512C153.816 37.8192 154.03 37.9032 154.302 37.9032ZM159.066 38.2632V34.0752H161.622V34.5192H159.57V35.9232H161.502V36.3672H159.57V37.8192H161.622V38.2632H159.066ZM163.526 38.2632C163.358 38.2632 163.23 38.2172 163.142 38.1252C163.058 38.0292 163.016 37.9092 163.016 37.7652V33.8232H163.496V37.8432H163.952V38.2632H163.526ZM166.315 38.3352C166.103 38.3352 165.911 38.2972 165.739 38.2212C165.571 38.1452 165.425 38.0372 165.301 37.8972C165.181 37.7532 165.087 37.5832 165.019 37.3872C164.955 37.1872 164.923 36.9632 164.923 36.7152C164.923 36.4712 164.955 36.2492 165.019 36.0492C165.087 35.8492 165.181 35.6792 165.301 35.5392C165.425 35.3952 165.571 35.2852 165.739 35.2092C165.911 35.1332 166.103 35.0952 166.315 35.0952C166.523 35.0952 166.709 35.1332 166.873 35.2092C167.037 35.2852 167.177 35.3912 167.293 35.5272C167.409 35.6592 167.497 35.8172 167.557 36.0012C167.621 36.1852 167.653 36.3872 167.653 36.6072V36.8352H165.427V36.9792C165.427 37.1112 165.447 37.2352 165.487 37.3512C165.531 37.4632 165.591 37.5612 165.667 37.6452C165.747 37.7292 165.843 37.7952 165.955 37.8432C166.071 37.8912 166.201 37.9152 166.345 37.9152C166.541 37.9152 166.711 37.8692 166.855 37.7772C167.003 37.6852 167.117 37.5532 167.197 37.3812L167.539 37.6272C167.439 37.8392 167.283 38.0112 167.071 38.1432C166.859 38.2712 166.607 38.3352 166.315 38.3352ZM166.315 35.4972C166.183 35.4972 166.063 35.5212 165.955 35.5692C165.847 35.6132 165.753 35.6772 165.673 35.7612C165.597 35.8452 165.537 35.9452 165.493 36.0612C165.449 36.1732 165.427 36.2972 165.427 36.4332V36.4752H167.137V36.4092C167.137 36.1332 167.061 35.9132 166.909 35.7492C166.761 35.5812 166.563 35.4972 166.315 35.4972ZM171.554 38.6052C171.554 38.9252 171.428 39.1592 171.176 39.3072C170.928 39.4592 170.554 39.5352 170.054 39.5352C169.57 39.5352 169.222 39.4692 169.01 39.3372C168.798 39.2052 168.692 39.0172 168.692 38.7732C168.692 38.6052 168.736 38.4732 168.824 38.3772C168.912 38.2852 169.032 38.2172 169.184 38.1732V38.1072C169 38.0192 168.908 37.8752 168.908 37.6752C168.908 37.5192 168.958 37.4012 169.058 37.3212C169.158 37.2372 169.286 37.1752 169.442 37.1352V37.1112C169.258 37.0232 169.114 36.8972 169.01 36.7332C168.91 36.5692 168.86 36.3792 168.86 36.1632C168.86 36.0072 168.888 35.8632 168.944 35.7312C169 35.5992 169.078 35.4872 169.178 35.3952C169.282 35.2992 169.404 35.2252 169.544 35.1732C169.688 35.1212 169.848 35.0952 170.024 35.0952C170.244 35.0952 170.44 35.1352 170.612 35.2152V35.1612C170.612 35.0412 170.64 34.9432 170.696 34.8672C170.752 34.7872 170.844 34.7472 170.972 34.7472H171.434V35.1672H170.846V35.3652C170.958 35.4612 171.044 35.5772 171.104 35.7132C171.168 35.8452 171.2 35.9952 171.2 36.1632C171.2 36.3192 171.172 36.4632 171.116 36.5952C171.06 36.7272 170.98 36.8412 170.876 36.9372C170.776 37.0292 170.654 37.1012 170.51 37.1532C170.366 37.2052 170.206 37.2312 170.03 37.2312C169.93 37.2312 169.83 37.2212 169.73 37.2012C169.626 37.2292 169.532 37.2712 169.448 37.3272C169.364 37.3792 169.322 37.4532 169.322 37.5492C169.322 37.6412 169.366 37.7032 169.454 37.7352C169.542 37.7672 169.656 37.7832 169.796 37.7832H170.456C170.84 37.7832 171.118 37.8572 171.29 38.0052C171.466 38.1492 171.554 38.3492 171.554 38.6052ZM171.104 38.6412C171.104 38.5172 171.056 38.4172 170.96 38.3412C170.868 38.2692 170.702 38.2332 170.462 38.2332H169.43C169.238 38.3212 169.142 38.4612 169.142 38.6532C169.142 38.7892 169.192 38.9052 169.292 39.0012C169.396 39.0972 169.57 39.1452 169.814 39.1452H170.258C170.526 39.1452 170.734 39.1032 170.882 39.0192C171.03 38.9352 171.104 38.8092 171.104 38.6412ZM170.03 36.8472C170.234 36.8472 170.396 36.7992 170.516 36.7032C170.636 36.6032 170.696 36.4512 170.696 36.2472V36.0792C170.696 35.8752 170.636 35.7252 170.516 35.6292C170.396 35.5292 170.234 35.4792 170.03 35.4792C169.826 35.4792 169.664 35.5292 169.544 35.6292C169.424 35.7252 169.364 35.8752 169.364 36.0792V36.2472C169.364 36.4512 169.424 36.6032 169.544 36.7032C169.664 36.7992 169.826 36.8472 170.03 36.8472ZM174.846 38.2632C174.666 38.2632 174.536 38.2152 174.456 38.1192C174.38 38.0232 174.332 37.9032 174.312 37.7592H174.282C174.214 37.9512 174.102 38.0952 173.946 38.1912C173.79 38.2872 173.604 38.3352 173.388 38.3352C173.06 38.3352 172.804 38.2512 172.62 38.0832C172.44 37.9152 172.35 37.6872 172.35 37.3992C172.35 37.1072 172.456 36.8832 172.668 36.7272C172.884 36.5712 173.218 36.4932 173.67 36.4932H174.282V36.1872C174.282 35.9672 174.222 35.7992 174.102 35.6832C173.982 35.5672 173.798 35.5092 173.55 35.5092C173.362 35.5092 173.204 35.5512 173.076 35.6352C172.952 35.7192 172.848 35.8312 172.764 35.9712L172.476 35.7012C172.56 35.5332 172.694 35.3912 172.878 35.2752C173.062 35.1552 173.294 35.0952 173.574 35.0952C173.95 35.0952 174.242 35.1872 174.45 35.3712C174.658 35.5552 174.762 35.8112 174.762 36.1392V37.8432H175.116V38.2632H174.846ZM173.466 37.9272C173.586 37.9272 173.696 37.9132 173.796 37.8852C173.896 37.8572 173.982 37.8172 174.054 37.7652C174.126 37.7132 174.182 37.6532 174.222 37.5852C174.262 37.5172 174.282 37.4432 174.282 37.3632V36.8532H173.646C173.37 36.8532 173.168 36.8932 173.04 36.9732C172.916 37.0532 172.854 37.1692 172.854 37.3212V37.4472C172.854 37.5992 172.908 37.7172 173.016 37.8012C173.128 37.8852 173.278 37.9272 173.466 37.9272ZM176.301 38.2632V35.1672H176.781V35.6712H176.805C176.881 35.4952 176.987 35.3552 177.123 35.2512C177.263 35.1472 177.449 35.0952 177.681 35.0952C178.001 35.0952 178.253 35.1992 178.437 35.4072C178.625 35.6112 178.719 35.9012 178.719 36.2772V38.2632H178.239V36.3612C178.239 35.8052 178.005 35.5272 177.537 35.5272C177.441 35.5272 177.347 35.5392 177.255 35.5632C177.167 35.5872 177.087 35.6232 177.015 35.6712C176.943 35.7192 176.885 35.7812 176.841 35.8572C176.801 35.9292 176.781 36.0152 176.781 36.1152V38.2632H176.301ZM181.363 38.3352C181.147 38.3352 180.953 38.2972 180.781 38.2212C180.609 38.1452 180.463 38.0372 180.343 37.8972C180.227 37.7572 180.137 37.5872 180.073 37.3872C180.013 37.1872 179.983 36.9632 179.983 36.7152C179.983 36.4672 180.013 36.2432 180.073 36.0432C180.137 35.8432 180.227 35.6732 180.343 35.5332C180.463 35.3932 180.609 35.2852 180.781 35.2092C180.953 35.1332 181.147 35.0952 181.363 35.0952C181.671 35.0952 181.917 35.1632 182.101 35.2992C182.289 35.4312 182.429 35.6052 182.521 35.8212L182.119 36.0252C182.063 35.8652 181.971 35.7412 181.843 35.6532C181.715 35.5652 181.555 35.5212 181.363 35.5212C181.219 35.5212 181.093 35.5452 180.985 35.5932C180.877 35.6372 180.787 35.7012 180.715 35.7852C180.643 35.8652 180.589 35.9632 180.553 36.0792C180.517 36.1912 180.499 36.3152 180.499 36.4512V36.9792C180.499 37.2512 180.571 37.4752 180.715 37.6512C180.863 37.8232 181.079 37.9092 181.363 37.9092C181.751 37.9092 182.031 37.7292 182.203 37.3692L182.551 37.6032C182.451 37.8272 182.301 38.0052 182.101 38.1372C181.905 38.2692 181.659 38.3352 181.363 38.3352ZM184.858 38.3352C184.646 38.3352 184.454 38.2972 184.282 38.2212C184.114 38.1452 183.968 38.0372 183.844 37.8972C183.724 37.7532 183.63 37.5832 183.562 37.3872C183.498 37.1872 183.466 36.9632 183.466 36.7152C183.466 36.4712 183.498 36.2492 183.562 36.0492C183.63 35.8492 183.724 35.6792 183.844 35.5392C183.968 35.3952 184.114 35.2852 184.282 35.2092C184.454 35.1332 184.646 35.0952 184.858 35.0952C185.066 35.0952 185.252 35.1332 185.416 35.2092C185.58 35.2852 185.72 35.3912 185.836 35.5272C185.952 35.6592 186.04 35.8172 186.1 36.0012C186.164 36.1852 186.196 36.3872 186.196 36.6072V36.8352H183.97V36.9792C183.97 37.1112 183.99 37.2352 184.03 37.3512C184.074 37.4632 184.134 37.5612 184.21 37.6452C184.29 37.7292 184.386 37.7952 184.498 37.8432C184.614 37.8912 184.744 37.9152 184.888 37.9152C185.084 37.9152 185.254 37.8692 185.398 37.7772C185.546 37.6852 185.66 37.5532 185.74 37.3812L186.082 37.6272C185.982 37.8392 185.826 38.0112 185.614 38.1432C185.402 38.2712 185.15 38.3352 184.858 38.3352ZM184.858 35.4972C184.726 35.4972 184.606 35.5212 184.498 35.5692C184.39 35.6132 184.296 35.6772 184.216 35.7612C184.14 35.8452 184.08 35.9452 184.036 36.0612C183.992 36.1732 183.97 36.2972 183.97 36.4332V36.4752H185.68V36.4092C185.68 36.1332 185.604 35.9132 185.452 35.7492C185.304 35.5812 185.106 35.4972 184.858 35.4972Z" fill="black"/>
</g>
<path fill-rule="evenodd" clip-rule="evenodd" d="M69.8422 0.516771C69.5257 0.801109 68.7876 1.81536 68.202 2.77104L67.1376 4.50831L68.757 8.11261C69.6478 10.0949 70.3764 11.7553 70.3764 11.8023C70.3764 11.8494 68.6126 11.8382 66.4564 11.7775C54.8535 11.4505 44.5752 15.0987 39.3801 21.3883C33.9922 27.9116 35.7213 35.9587 43.6731 41.3685C45.7089 42.7535 50.3888 45.0165 51.2169 45.0165C51.6938 45.0165 55.7906 42.7721 55.7906 42.5109C55.7906 42.4163 54.9289 42.0886 53.8762 41.7829C52.6966 41.4402 50.9058 40.5656 49.2113 39.5042C44.8312 36.7612 43.028 34.0821 43.028 30.3172C43.028 26.816 44.771 24.0248 48.5462 21.4809C52.3987 18.8849 57.5544 17.4352 63.0835 17.3931C70.3775 17.3378 76.5976 19.3699 80.5627 23.104C85.6852 27.9281 85.2462 33.9792 79.4407 38.5718C77.6175 40.0144 73.7311 41.7808 70.8453 42.4788C68.8478 42.962 68.6224 43.0998 66.6125 45.0697L64.4895 47.1504L66.8112 47.0006C70.2553 46.7783 74.1814 46.025 77.4771 44.954C81.5925 43.6166 86.7507 40.3676 88.8741 37.7755C93.4985 32.13 93.2688 25.7418 88.2505 20.4214C86.5589 18.6281 83.1911 16.2512 80.9642 15.2792C80.1547 14.9259 79.4932 14.5734 79.4939 14.4958C79.4947 14.4181 82.0384 13.5481 85.147 12.5621C91.362 10.5908 91.2176 10.6813 92.6485 7.86341C93.3876 6.40818 93.4281 6.15416 92.9665 5.87442C92.3666 5.51107 71.6793 0 70.9142 0C70.6411 0 70.1587 0.232432 69.8422 0.516771ZM8.29092 14.1067C3.73068 17.0651 0 19.6405 0 19.8295C0 20.3431 3.96223 23.1323 5.062 23.3929C5.58708 23.5174 8.62895 23.7313 11.8214 23.8681C15.0142 24.0053 17.6769 24.149 17.7385 24.1878C17.8001 24.2267 17.1124 25.1823 16.2099 26.3117C14.0239 29.0478 13.1265 31.3799 13.1298 34.3159C13.1352 39.3683 16.0593 43.7004 21.755 47.0955C24.4126 48.6796 25.4551 49.1403 28.7012 50.1665C34.1504 51.889 41.4987 52.3822 47.7192 51.443C56.2267 50.1582 63.6246 46.0978 66.9743 40.8743C70.9299 34.7061 68.8529 27.4894 61.6825 22.4853L59.7342 21.1258L57.6262 21.8337C56.4666 22.2227 55.0143 22.8697 54.3988 23.2712L53.2793 24.0011L55.3355 25.0347C57.7721 26.2595 60.4351 28.6321 61.5983 30.6149C62.6331 32.3779 63.0044 35.8088 62.3695 37.7355C61.1964 41.2943 56.7562 44.9349 51.6876 46.4935C43.0725 49.1428 34.3251 48.2703 27.7068 44.1017C21.2635 40.0431 19.782 34.5008 23.7311 29.2272C24.612 28.0503 25.6637 27.1978 28.0867 25.6952C30.3931 24.2653 31.3536 23.4991 31.5417 22.9391C31.685 22.5126 32.3589 21.2193 33.0393 20.0649C34.5825 17.4471 34.6066 17.1673 33.2738 17.3679C31.2511 17.6724 27.4931 18.6387 26.1297 19.2048C25.3592 19.5247 24.6773 19.753 24.6142 19.7119C24.5511 19.6708 24.2262 18.1386 23.8919 16.307C23.5579 14.4753 23.1203 12.6423 22.9197 12.2335C22.5208 11.4211 18.0791 8.72768 17.1383 8.72768C16.832 8.72768 12.8508 11.1482 8.29092 14.1067Z" fill="url(#paint0_linear_593_24)"/>
<line x1="123.684" y1="43.3265" x2="220.406" y2="43.3265" stroke="url(#paint1_linear_593_24)" stroke-dasharray="2 2"/>
<defs>
<filter id="filter0_i_593_24" x="105.568" y="13.0841" width="84.3463" height="18.44" filterUnits="userSpaceOnUse" color-interpolation-filters="sRGB">
<feFlood flood-opacity="0" result="BackgroundImageFix"/>
<feBlend mode="normal" in="SourceGraphic" in2="BackgroundImageFix" result="shape"/>
<feColorMatrix in="SourceAlpha" type="matrix" values="0 0 0 0 0 0 0 0 0 0 0 0 0 0 0 0 0 0 127 0" result="hardAlpha"/>
<feOffset dy="4"/>
<feGaussianBlur stdDeviation="2"/>
<feComposite in2="hardAlpha" operator="arithmetic" k2="-1" k3="1"/>
<feColorMatrix type="matrix" values="0 0 0 0 0 0 0 0 0 0 0 0 0 0 0 0 0 0 0.25 0"/>
<feBlend mode="normal" in2="shape" result="effect1_innerShadow_593_24"/>
</filter>
<filter id="filter1_i_593_24" x="112.998" y="33.8232" width="73.1982" height="9.71198" filterUnits="userSpaceOnUse" color-interpolation-filters="sRGB">
<feFlood flood-opacity="0" result="BackgroundImageFix"/>
<feBlend mode="normal" in="SourceGraphic" in2="BackgroundImageFix" result="shape"/>
<feColorMatrix in="SourceAlpha" type="matrix" values="0 0 0 0 0 0 0 0 0 0 0 0 0 0 0 0 0 0 127 0" result="hardAlpha"/>
<feOffset dy="4"/>
<feGaussianBlur stdDeviation="2"/>
<feComposite in2="hardAlpha" operator="arithmetic" k2="-1" k3="1"/>
<feColorMatrix type="matrix" values="0 0 0 0 0 0 0 0 0 0 0 0 0 0 0 0 0 0 0.25 0"/>
<feBlend mode="normal" in2="shape" result="effect1_innerShadow_593_24"/>
</filter>
<linearGradient id="paint0_linear_593_24" x1="46.6339" y1="0" x2="46.6339" y2="51.9123" gradientUnits="userSpaceOnUse">
<stop stop-color="#009E7F"/>
<stop offset="1" stop-color="#00382D"/>
</linearGradient>
<linearGradient id="paint1_linear_593_24" x1="123.684" y1="44.3265" x2="220.406" y2="44.3265" gradientUnits="userSpaceOnUse">
<stop stop-color="#00AB63"/>
<stop offset="1" stop-color="#007A64"/>
</linearGradient>
</defs>
</svg>
