<svg width="60" height="50" viewBox="0 0 60 50" fill="none" xmlns="http://www.w3.org/2000/svg">
<g filter="url(#filter0_i_1_1255)">
<path fill-rule="evenodd" clip-rule="evenodd" d="M44.93 0.497071C44.7264 0.770571 44.2516 1.74616 43.8749 2.66541L43.1902 4.33645L44.2319 7.80335C44.805 9.71012 45.2737 11.3071 45.2737 11.3524C45.2737 11.3977 44.139 11.3869 42.752 11.3286C35.2877 11.014 28.6756 14.5231 25.3336 20.573C21.8674 26.8476 22.9798 34.588 28.0953 39.7915C29.4049 41.1237 32.4155 43.3004 32.9482 43.3004C33.2551 43.3004 35.8906 41.1416 35.8906 40.8904C35.8906 40.7994 35.3362 40.4841 34.659 40.1901C33.9002 39.8605 32.7481 39.0192 31.658 37.9983C28.8403 35.3599 27.6803 32.7828 27.6803 29.1615C27.6803 25.7938 28.8016 23.1089 31.2302 20.662C33.7085 18.165 37.0252 16.7705 40.5821 16.7301C45.2744 16.6768 49.2759 18.6315 51.8267 22.2233C55.122 26.8635 54.8396 32.6839 51.1049 37.1014C49.932 38.489 47.4318 40.1881 45.5754 40.8595C44.2904 41.3243 44.1454 41.4568 42.8524 43.3517L41.4867 45.353L42.9802 45.2089C45.1958 44.9951 47.7215 44.2705 49.8417 43.2403C52.4891 41.9539 55.8075 38.8288 57.1734 36.3354C60.1483 30.9052 60.0006 24.7605 56.7723 19.6429C55.6841 17.918 53.5175 15.6317 52.0849 14.6967C51.5642 14.357 51.1386 14.0178 51.1391 13.9432C51.1396 13.8685 52.776 13.0317 54.7758 12.0832C58.7739 10.1871 58.6811 10.2741 59.6015 7.56365C60.077 6.1639 60.1031 5.91956 59.8061 5.65048C59.4202 5.30098 46.1119 0 45.6197 0C45.444 0 45.1337 0.223571 44.93 0.497071ZM5.33362 13.5689C2.39998 16.4146 0 18.8918 0 19.0736C0 19.5676 2.54893 22.2504 3.25642 22.5012C3.59422 22.6209 5.55107 22.8266 7.60481 22.9583C9.65878 23.0902 11.3717 23.2285 11.4113 23.2658C11.451 23.3031 11.0085 24.2224 10.428 25.3086C9.02166 27.9405 8.44437 30.1837 8.44648 33.0077C8.45 37.8675 10.3311 42.0345 13.9952 45.3002C15.7048 46.8239 16.3755 47.267 18.4637 48.2541C21.9692 49.911 26.6965 50.3853 30.6982 49.482C36.1711 48.2462 40.9302 44.3405 43.0851 39.3161C45.6298 33.3831 44.2936 26.4415 39.6809 21.6281L38.4275 20.3205L37.0714 21.0014C36.3255 21.3756 35.3911 21.9979 34.9952 22.3841L34.275 23.0862L35.5978 24.0803C37.1653 25.2585 38.8784 27.5406 39.6267 29.4478C40.2924 31.1436 40.5312 34.4437 40.1228 36.297C39.3682 39.7202 36.5117 43.222 33.2511 44.7211C27.7089 47.2695 22.0816 46.4302 17.824 42.4205C13.679 38.5166 12.7259 33.1856 15.2664 28.113C15.8331 26.981 16.5097 26.161 18.0684 24.7157C19.5521 23.3402 20.17 22.6033 20.2911 22.0647C20.3833 21.6544 20.8168 20.4104 21.2545 19.3001C22.2472 16.782 22.2627 16.5129 21.4053 16.7058C20.1041 16.9987 17.6865 17.9281 16.8094 18.4727C16.3138 18.7804 15.8751 19 15.8345 18.9605C15.794 18.921 15.5849 17.4472 15.3698 15.6854C15.155 13.9235 14.8735 12.1603 14.7444 11.7671C14.4878 10.9857 11.6304 8.39498 11.0252 8.39498C10.8282 8.39498 8.26702 10.7233 5.33362 13.5689Z" fill="url(#paint0_linear_1_1255)"/>
</g>
<defs>
<filter id="filter0_i_1_1255" x="0" y="0" width="60" height="53.9333" filterUnits="userSpaceOnUse" color-interpolation-filters="sRGB">
<feFlood flood-opacity="0" result="BackgroundImageFix"/>
<feBlend mode="normal" in="SourceGraphic" in2="BackgroundImageFix" result="shape"/>
<feColorMatrix in="SourceAlpha" type="matrix" values="0 0 0 0 0 0 0 0 0 0 0 0 0 0 0 0 0 0 127 0" result="hardAlpha"/>
<feOffset dy="4"/>
<feGaussianBlur stdDeviation="2"/>
<feComposite in2="hardAlpha" operator="arithmetic" k2="-1" k3="1"/>
<feColorMatrix type="matrix" values="0 0 0 0 0 0 0 0 0 0 0 0 0 0 0 0 0 0 0.25 0"/>
<feBlend mode="normal" in2="shape" result="effect1_innerShadow_1_1255"/>
</filter>
<linearGradient id="paint0_linear_1_1255" x1="30" y1="0" x2="30" y2="49.9333" gradientUnits="userSpaceOnUse">
<stop stop-color="#012433"/>
<stop offset="1" stop-color="#007A64"/>
</linearGradient>
</defs>
</svg>
