<svg width="12" height="12" viewBox="0 0 12 12" fill="none" xmlns="http://www.w3.org/2000/svg">
<path fill-rule="evenodd" clip-rule="evenodd" d="M2.32237 0.15334C1.27127 0.514772 0.506741 1.28622 0.149946 2.34527C0.00868606 2.76471 0 2.96662 0 5.841C0 8.6283 0.0120723 8.93033 0.139494 9.33976C0.476193 10.4216 1.3504 11.2763 2.43985 11.5888C2.79974 11.692 3.28226 11.7051 6.04681 11.6866L9.23824 11.6652L9.7363 11.43C10.4388 11.0984 11.0539 10.491 11.3962 9.7907L11.6674 9.23604L11.6888 6.04461C11.7073 3.28006 11.6942 2.79754 11.591 2.43765C11.2785 1.3482 10.4238 0.473991 9.34196 0.137293C8.9318 0.00957673 8.63441 -0.00198031 5.82716 0.000228038C2.93268 0.00258361 2.73584 0.0111962 2.32237 0.15334ZM9.38546 1.09962C9.85864 1.33318 10.4179 1.89197 10.6231 2.33607C10.7793 2.67424 10.7847 2.77604 10.8055 5.74708C10.8265 8.75028 10.8238 8.818 10.6647 9.2431C10.4427 9.83649 9.83869 10.4405 9.24531 10.6625C8.8202 10.8216 8.75248 10.8243 5.74928 10.8033L2.68682 10.7819L2.31876 10.601C1.84986 10.3705 1.33472 9.85504 1.10182 9.38326L0.920143 9.0152V5.84991V2.68462L1.11853 2.30868C1.39067 1.79281 1.64941 1.50183 2.03904 1.27349C2.70927 0.880695 2.68255 0.883198 5.96253 0.901159L9.01741 0.917942L9.38546 1.09962ZM9.21785 1.87909C9.02352 2.01512 8.99819 2.36043 9.16986 2.53217C9.34159 2.70383 9.6869 2.67851 9.82294 2.48417C9.98724 2.24965 9.96508 2.09124 9.74358 1.91707C9.51127 1.73429 9.43258 1.72863 9.21785 1.87909ZM4.89421 2.85385C4.01249 3.15875 3.38804 3.71547 2.99341 4.54846C2.77559 5.00824 2.76043 5.09304 2.76043 5.85374C2.76043 6.6458 2.76772 6.68201 3.03714 7.22718C3.66085 8.48918 4.98092 9.18878 6.33184 8.97317C7.0056 8.8657 7.51728 8.60887 8.02763 8.12208C10.095 6.15017 8.69911 2.71178 5.83606 2.72385C5.48958 2.72525 5.1174 2.77663 4.89421 2.85385ZM6.88267 3.84378C7.62769 4.22737 8.04257 4.87279 8.08571 5.7155C8.12487 6.47929 7.96034 6.91882 7.44138 7.43727C6.95459 7.92355 6.53066 8.09543 5.82061 8.09432C4.64407 8.09256 3.70891 7.21518 3.6247 6.03394C3.58282 5.44637 3.68352 5.05211 3.99445 4.58696C4.2423 4.21603 4.7821 3.80329 5.17967 3.68058C5.60301 3.54999 6.4742 3.63347 6.88267 3.84378Z" fill="#012433"/>
<circle cx="5.84839" cy="5.84791" r="1.71998" fill="#012433"/>
</svg>
