<svg width="25" height="23" viewBox="0 0 25 23" fill="none" xmlns="http://www.w3.org/2000/svg">
<path d="M0.259439 22.3686C0.349016 22.3919 0.444183 22.379 0.524313 22.3327C0.604442 22.2863 0.663076 22.2103 0.687505 22.121C1.40794 19.433 4.33586 18.7363 6.0859 18.3194C6.52446 18.2152 6.87069 18.1327 7.09591 18.0354C9.08936 17.1702 9.73916 15.7783 9.9336 14.7627C9.94517 14.7023 9.94058 14.6399 9.92032 14.5818C9.90006 14.5237 9.86483 14.472 9.81819 14.4319C8.7802 13.5359 7.90448 12.1908 7.35191 10.6436C7.33633 10.5992 7.31181 10.5585 7.27987 10.524C6.54894 9.72942 6.12927 8.88938 6.12927 8.22C6.12927 7.829 6.27685 7.56671 6.60909 7.36876C6.65886 7.33901 6.70045 7.29735 6.73012 7.24754C6.75979 7.19772 6.77661 7.14131 6.77906 7.08338C6.93364 3.52036 9.47126 0.715543 12.5838 0.697357L12.6587 0.702253C15.7866 0.745619 18.3082 3.61059 18.3984 7.22397C18.3997 7.27336 18.4114 7.32192 18.4329 7.36642C18.4544 7.41092 18.485 7.45034 18.5229 7.48207C18.7418 7.66743 18.844 7.90244 18.844 8.2214C18.844 8.78166 18.5453 9.47062 18.0039 10.1603C17.9781 10.1935 17.9582 10.2309 17.9452 10.2708C17.3856 12.0446 16.3812 13.6107 15.1907 14.569C15.1414 14.6088 15.1038 14.6612 15.0819 14.7207C15.0599 14.7802 15.0545 14.8445 15.0662 14.9068C15.2607 15.9217 15.9104 17.3129 17.9039 18.1795C18.1396 18.2817 18.5054 18.3614 18.9692 18.4614C20.7017 18.8363 23.601 19.4651 24.3123 22.121C24.3242 22.1653 24.3448 22.2069 24.3728 22.2433C24.4008 22.2797 24.4357 22.3103 24.4755 22.3332C24.5154 22.3561 24.5593 22.371 24.6049 22.377C24.6504 22.3829 24.6967 22.3798 24.7411 22.3679C24.7854 22.3559 24.827 22.3354 24.8634 22.3074C24.8999 22.2794 24.9304 22.2444 24.9533 22.2046C24.9762 22.1648 24.9911 22.1209 24.9971 22.0753C25.003 22.0298 24.9999 21.9835 24.988 21.9391C24.1661 18.8706 20.8815 18.1593 19.1175 17.7774C18.7083 17.6885 18.355 17.6123 18.183 17.5367C16.882 16.9716 16.0804 16.1105 15.7971 14.9732C17.0051 13.9359 18.0158 12.3356 18.5936 10.5408C19.207 9.74341 19.5441 8.92225 19.5441 8.2207C19.5441 7.75276 19.393 7.36246 19.0937 7.0575C18.9272 3.13776 16.1301 0.0510602 12.6587 0.00139891L12.5545 0C9.14602 0.0181858 6.33701 3.02374 6.0915 6.87564C5.65364 7.19739 5.43121 7.64854 5.43121 8.2214C5.43121 9.04885 5.89915 10.0386 6.71821 10.9465C7.28407 12.5014 8.16118 13.8674 9.20547 14.8236C8.92359 15.9651 8.12132 16.8289 6.81753 17.3947C6.64896 17.4682 6.31322 17.5486 5.92433 17.641C4.14701 18.0634 0.839987 18.8503 0.0118317 21.9405C-0.0120851 22.0301 0.000563972 22.1255 0.0469973 22.2058C0.0934307 22.2861 0.169846 22.3446 0.259439 22.3686Z" fill="#007A64"/>
</svg>
