<svg width="22" height="22" viewBox="0 0 22 22" fill="none" xmlns="http://www.w3.org/2000/svg">
<path d="M10.0638 0.75173C9.69327 1.17153 9.2642 1.65966 9.10817 1.83539L8.82537 2.1478L7.27483 1.74753L5.7243 1.34726L5.47075 1.54251C5.22696 1.71824 5.20745 1.8061 5.05142 3.27051C4.96366 4.11011 4.86614 4.82278 4.84664 4.84231C4.82713 4.8716 4.19327 4.9497 3.45213 5.0278C1.73582 5.21329 1.69681 5.22306 1.50178 5.51594C1.3555 5.74048 1.375 5.81858 1.89185 7.27323C2.19415 8.11282 2.43795 8.81574 2.43795 8.8255C2.43795 8.84503 2.00887 9.17696 1.49202 9.56747C0.253546 10.4852 0 10.7292 0 10.9831C0 11.2369 0.253546 11.481 1.48227 12.3987C2.00887 12.7892 2.43795 13.1211 2.43795 13.1309C2.43795 13.1406 2.19415 13.8338 1.9016 14.6538C1.16046 16.704 1.10195 16.6064 3.40337 17.075C4.17376 17.241 4.81738 17.3874 4.83689 17.4069C4.86614 17.4265 4.94416 17.9927 5.02217 18.6566C5.21721 20.2284 5.22696 20.2772 5.50976 20.4627C5.7438 20.6091 5.81206 20.5993 7.27483 20.0624C8.10373 19.7597 8.82537 19.5352 8.85462 19.5743C8.89363 19.6035 9.29345 20.121 9.75179 20.7165C10.2101 21.3218 10.6587 21.849 10.7465 21.9075C11.0488 22.0833 11.3706 21.8099 12.375 20.5115C12.9211 19.8086 13.3794 19.2326 13.399 19.2326C13.4185 19.2326 14.0328 19.545 14.774 19.9257C16.6463 20.902 16.6658 20.8825 16.9096 18.5589C16.9876 17.7877 17.0754 17.1336 17.1046 17.1141C17.1241 17.0945 17.8165 17.0067 18.6454 16.9188C19.8839 16.7919 20.1764 16.7333 20.3617 16.5673C20.4788 16.4599 20.5763 16.3135 20.5763 16.2452C20.5763 16.1671 20.3325 15.4446 20.0399 14.6343C19.7474 13.824 19.5036 13.1406 19.5036 13.1309C19.5036 13.1211 20.0107 12.7208 20.625 12.262C21.2491 11.7934 21.805 11.3052 21.8635 11.1783C22.0195 10.8269 21.8245 10.5926 20.43 9.52842C19.7571 9.00123 19.211 8.56191 19.211 8.54238C19.211 8.52286 19.5036 7.95662 19.8546 7.30252C20.625 5.84787 20.664 5.6819 20.3617 5.40855C20.1764 5.23282 19.9034 5.17424 18.6454 5.05709C17.8263 4.97899 17.1339 4.89112 17.1046 4.86184C17.0754 4.83255 16.9876 4.12963 16.8998 3.30956C16.7438 1.77682 16.6658 1.53275 16.2757 1.4156C16.1685 1.37654 15.4761 1.58156 14.6179 1.89397C13.8085 2.19661 13.1357 2.44068 13.1259 2.44068C13.1064 2.44068 12.7748 2.01112 12.3848 1.48393C11.4583 0.244068 11.2243 0 10.961 0C10.805 0 10.5222 0.234306 10.0638 0.75173ZM11.7411 2.68475C12.18 3.28028 12.5896 3.72936 12.7163 3.76841C12.8431 3.7977 13.4575 3.62197 14.2376 3.33885C15.3786 2.91905 15.5638 2.87024 15.6126 3.01668C15.6419 3.10455 15.7296 3.7196 15.7881 4.39322C15.8564 5.05709 15.9539 5.6819 16.0027 5.76977C16.1197 6.00407 16.266 6.04313 17.5825 6.16028C18.2358 6.22862 18.8112 6.30672 18.8502 6.34577C18.899 6.38482 18.6649 6.92177 18.3431 7.53682C17.9433 8.31784 17.7775 8.72787 17.8165 8.87431C17.8458 9.00123 18.3919 9.48937 19.0842 10.0263C19.7474 10.5437 20.2545 10.9928 20.2155 11.0319C20.1764 11.0709 19.7084 11.4224 19.1818 11.8129C18.6552 12.2132 18.2066 12.6134 18.1773 12.7306C18.1481 12.8477 18.3334 13.4921 18.6064 14.2536C19.0257 15.3958 19.0745 15.5813 18.9282 15.6301C18.8405 15.6594 18.2261 15.7473 17.5532 15.8058C16.305 15.9328 16.0514 16.0011 15.9637 16.2452C15.9344 16.3233 15.8564 16.9286 15.7881 17.5924C15.7199 18.2465 15.6419 18.8323 15.6029 18.8713C15.5638 18.9202 15.0665 18.7151 14.5107 18.4125C13.0284 17.6217 13.0771 17.612 11.9362 19.0959C11.4193 19.7695 10.961 20.2869 10.922 20.2381C10.883 20.1991 10.5319 19.7305 10.1419 19.2033C9.74203 18.6761 9.34221 18.227 9.22519 18.2075C9.10817 18.1782 8.44505 18.3637 7.70391 18.637C6.98228 18.9006 6.37767 19.1056 6.35816 19.0861C6.34841 19.0764 6.2704 18.5199 6.18263 17.856C6.07536 16.9969 5.9876 16.5966 5.87057 16.4795C5.76331 16.3721 5.1977 16.2061 4.31029 16.0206C3.5399 15.8742 2.89628 15.7277 2.87678 15.6985C2.84752 15.6789 3.05231 15.0444 3.32536 14.3024C3.61791 13.4921 3.79344 12.8575 3.76419 12.7306C3.73493 12.6134 3.30586 12.2229 2.75976 11.8129C2.23316 11.4224 1.77482 11.0709 1.73582 11.0416C1.68706 11.0026 2.11614 10.6316 2.68174 10.2118C3.26685 9.77248 3.72518 9.36245 3.76419 9.23553C3.79344 9.11838 3.61791 8.48381 3.33511 7.71255C3.07181 6.99011 2.86702 6.37506 2.88653 6.35553C2.90603 6.33601 3.50089 6.25791 4.21277 6.18957C4.92465 6.11146 5.58777 6.0236 5.67554 5.99431C5.94859 5.90645 6.0266 5.6819 6.13387 4.58848C6.19238 4.02224 6.26065 3.3779 6.2899 3.16312L6.34841 2.75309L7.63565 3.08502C8.34753 3.26075 9.0204 3.41695 9.13742 3.41695C9.29345 3.41695 9.57625 3.16312 10.1126 2.53831C10.5319 2.05993 10.8927 1.65966 10.922 1.65966C10.9513 1.65966 11.3218 2.11851 11.7411 2.68475Z" fill="#012433"/>
<path d="M7.17007 7.45413C6.5167 7.74701 6.24365 8.29372 6.24365 9.31881C6.24365 10.1096 6.53621 10.6954 7.07255 10.9687C7.61865 11.2518 8.78887 11.2518 9.26671 10.9687C9.93958 10.5782 10.2224 9.83623 10.1054 8.84043C9.96883 7.7763 9.37398 7.31745 8.14525 7.32721C7.77468 7.32721 7.33585 7.38579 7.17007 7.45413ZM8.6816 9.10403C8.6816 9.97291 8.56458 10.1779 8.09649 10.1291L7.75518 10.0998L7.72592 9.37738C7.70642 8.97711 7.71617 8.59637 7.74543 8.51826C7.77468 8.44016 7.95997 8.39135 8.24277 8.39135H8.6816V9.10403Z" fill="#012433"/>
<path d="M12.2679 7.5388C12.0631 7.70476 8.38672 14.1091 8.38672 14.3044C8.38672 14.5191 9.57644 14.5191 9.76172 14.2946C10.0738 13.9236 13.6234 7.65595 13.5844 7.54856C13.5162 7.38259 12.4727 7.38259 12.2679 7.5388Z" fill="#012433"/>
<path d="M12.9515 10.8413C12.4932 10.978 12.0349 11.4857 11.8886 12.0226C11.752 12.5498 11.8398 13.4968 12.0739 13.8971C12.5614 14.7562 14.5313 14.9222 15.2334 14.1802C15.5943 13.7897 15.7308 13.2527 15.682 12.4815C15.6235 11.6809 15.3895 11.2416 14.8824 10.9878C14.4435 10.773 13.4586 10.7047 12.9515 10.8413ZM14.2193 12.6572L14.19 13.5163L13.7804 13.5456L13.3611 13.5749V12.7548C13.3611 12.3057 13.3903 11.9055 13.4294 11.8762C13.4586 11.8371 13.6634 11.8078 13.8682 11.8078H14.2485L14.2193 12.6572Z" fill="#012433"/>
</svg>
