<svg width="11" height="11" viewBox="0 0 11 11" fill="none" xmlns="http://www.w3.org/2000/svg">
<path fill-rule="evenodd" clip-rule="evenodd" d="M4.00918 0.0147291C3.93192 0.0285609 3.71699 0.067751 3.53157 0.101754C1.92456 0.396314 0.499835 1.81817 0.0976345 3.5287C-0.0434561 4.12877 -0.0299146 5.13129 0.127134 5.71539C0.485844 7.04941 1.29862 8.06991 2.47381 8.66162C3.06194 8.9578 3.81493 9.14303 4.43059 9.14303C5.22831 9.14303 6.21369 8.83954 6.85307 8.39692L7.10811 8.22039L7.42693 8.53114C8.34365 9.42479 9.90306 10.8385 10.0573 10.9157C10.4603 11.1175 10.9391 10.8016 10.9391 10.3338C10.9391 10.1721 10.9 10.0275 10.8315 9.93571C10.7723 9.8564 10.114 9.22798 9.36871 8.53921L8.01371 7.2868L8.20391 6.99097C8.42687 6.64431 8.68736 5.97416 8.78951 5.48486C8.89942 4.9581 8.87346 3.95697 8.73596 3.42312C8.49216 2.47633 7.81738 1.45698 7.05389 0.882156C6.65809 0.584196 6.02715 0.277879 5.55274 0.153451C5.13262 0.0431995 4.27804 -0.0335669 4.00918 0.0147291ZM5.38581 0.769888C6.70226 1.10404 7.82834 2.27825 8.14435 3.64638C8.26397 4.16427 8.26229 5.03026 8.14075 5.51368C7.85037 6.66898 7.10659 7.59646 6.06007 8.10841C4.96102 8.64601 3.84915 8.63413 2.72795 8.07273C1.86635 7.64124 1.16287 6.83335 0.830114 5.89302C0.330201 4.48033 0.684978 2.87826 1.73667 1.79961C2.70289 0.808502 4.04542 0.429683 5.38581 0.769888Z" fill="black"/>
</svg>
