<svg width="20" height="20" viewBox="0 0 20 20" fill="none" xmlns="http://www.w3.org/2000/svg">
<path fill-rule="evenodd" clip-rule="evenodd" d="M0 2.339V4.67801H0.622406H1.24481V2.96274V1.24747H2.95643H4.66805V0.623735V0H2.33402H0V2.339ZM15.2489 0.623735V1.24747H16.9606H18.6722V2.96274V4.67801H19.2946H19.917V2.339V0H17.583H15.2489V0.623735ZM2.3695 5.26276L2.41182 8.18652H5.29045H8.16908L8.21311 6.43226L8.25715 4.67801H8.79662H9.33609V5.84751V7.01701H9.9585H10.5809V5.84751V4.67801H9.9585H9.33609V4.05428C9.33609 3.44535 9.32318 3.43054 8.79148 3.43054C8.27287 3.43054 8.24688 3.4045 8.24688 2.88477V2.339H5.28703H2.32718L2.3695 5.26276ZM9.36565 2.92376C9.4114 3.47888 9.44143 3.50851 9.9585 3.50851C10.4756 3.50851 10.5056 3.47888 10.5513 2.92376L10.5997 2.339H9.9585H9.31726L9.36565 2.92376ZM11.7056 5.26276L11.7479 8.18652L12.876 8.23236L14.0041 8.27821V8.81711V9.35602H12.3019H10.5997L10.5513 8.77127C10.5056 8.21614 10.4756 8.18652 9.9585 8.18652H9.41389V9.35602V10.5255L11.709 10.5687L14.0041 10.6118V9.98396V9.35602H14.6265H15.2489V9.98662V10.6172L16.3771 10.5714L17.5052 10.5255L17.5534 9.94077L17.6018 9.35602H16.4253H15.2489V8.81711V8.27821L16.3771 8.23236L17.5052 8.18652L17.5475 5.26276L17.5898 2.339H14.6265H11.6633L11.7056 5.26276ZM7.00207 5.30174V7.01701H5.29045H3.57883V5.30174V3.58647H5.29045H7.00207V5.30174ZM16.3382 5.30174V7.01701H14.6265H12.9149V5.30174V3.58647H14.6265H16.3382V5.30174ZM4.69761 5.26276C4.74336 5.81788 4.77339 5.84751 5.29045 5.84751C5.80751 5.84751 5.83755 5.81788 5.88329 5.26276L5.93168 4.67801H5.29045H4.64922L4.69761 5.26276ZM14.0337 5.26276C14.0794 5.81788 14.1095 5.84751 14.6265 5.84751C15.1436 5.84751 15.1736 5.81788 15.2194 5.26276L15.2678 4.67801H14.6265H13.9853L14.0337 5.26276ZM2.36359 9.94077L2.41182 10.5255L3.53993 10.5714L4.66805 10.6172V11.1561C4.66805 11.668 4.64081 11.695 4.12344 11.695C3.59175 11.695 3.57883 11.7098 3.57883 12.3188C3.57883 12.9277 3.59175 12.9425 4.12344 12.9425H4.66805V14.034V15.1256H4.12344C3.59175 15.1256 3.57883 15.1404 3.57883 15.7493V16.373H2.94709H2.31519L2.36359 16.9578C2.40933 17.5129 2.43936 17.5425 2.95643 17.5425C3.47349 17.5425 3.50352 17.5129 3.54927 16.9578C3.59486 16.407 3.62816 16.373 4.12344 16.373C4.61872 16.373 4.65202 16.407 4.69761 16.9578L4.74585 17.5425H7.62447H10.5031L10.5513 16.9578L10.5997 16.373H9.96783H9.33609V15.7493C9.33609 15.1404 9.32318 15.1256 8.79148 15.1256C8.25979 15.1256 8.24688 15.1404 8.24688 15.7493V16.373H7.07987H5.91286V15.8273C5.91286 15.3075 5.93884 15.2815 6.45746 15.2815C6.98915 15.2815 7.00207 15.2667 7.00207 14.6578V14.034H7.62447H8.24688V12.8645V11.695H8.79148C9.32318 11.695 9.33609 11.6802 9.33609 11.0713C9.33609 10.4624 9.32318 10.4476 8.79148 10.4476C8.25979 10.4476 8.24688 10.4624 8.24688 11.0713V11.695H7.62447H7.00207V12.8645V14.034H6.45746H5.91286V12.3256V10.6172L7.04097 10.5714L8.16908 10.5255L8.21732 9.94077L8.26571 9.35602H5.29045H2.31519L2.36359 9.94077ZM14.1152 10.5441C14.0541 10.6054 14.0041 10.8893 14.0041 11.1753V11.695H12.2925H10.5809V12.3188C10.5809 12.9277 10.5938 12.9425 11.1255 12.9425C11.6441 12.9425 11.6701 12.9685 11.6701 13.4883C11.6701 14.0063 11.6429 14.034 11.1348 14.034C10.6288 14.034 10.5971 14.0022 10.5513 13.4493C10.5056 12.8942 10.4756 12.8645 9.9585 12.8645C9.44143 12.8645 9.4114 12.8942 9.36565 13.4493L9.31726 14.034H9.94916H10.5809V14.6578C10.5809 15.2651 10.5951 15.2815 11.1187 15.2815H11.6564L11.7022 16.412L11.7479 17.5425H14.6265H17.5052L17.5475 14.6188L17.5898 11.695H16.4287H15.2678L15.2194 11.1103C15.1761 10.5859 15.1224 10.5207 14.6987 10.4792C14.4389 10.4536 14.1764 10.483 14.1152 10.5441ZM2.4028 12.9879C2.35612 13.1097 2.33916 13.6579 2.36499 14.2063L2.41182 15.2035H2.95643H3.50103V14.034V12.8645L2.99424 12.8156C2.66436 12.7838 2.45788 12.8439 2.4028 12.9879ZM16.3382 14.6578V16.373H14.6265H12.9149V14.6578V12.9425H14.6265H16.3382V14.6578ZM14.0337 14.6188C14.0794 15.1739 14.1095 15.2035 14.6265 15.2035C15.1436 15.2035 15.1736 15.1739 15.2194 14.6188L15.2678 14.034H14.6265H13.9853L14.0337 14.6188ZM0 17.6205V19.9595H2.33402H4.66805V19.3358V18.712H2.95643H1.24481V16.9968V15.2815H0.622406H0V17.6205ZM18.6722 16.9968V18.712H16.9606H15.2489V19.3358V19.9595H17.583H19.917V17.6205V15.2815H19.2946H18.6722V16.9968Z" fill="#012433"/>
</svg>
