<svg width="20" height="18" viewBox="0 0 20 18" fill="none" xmlns="http://www.w3.org/2000/svg">
<path fill-rule="evenodd" clip-rule="evenodd" d="M4.62778 0.0495996C2.15381 0.437131 0.253129 2.46139 0.0213271 4.95553C-0.0653884 5.88811 0.11174 6.81084 0.56358 7.78073C0.868989 8.43636 1.33976 8.94769 5.28286 12.9064C9.14237 16.7811 9.70367 17.3038 10.0055 17.3038C10.3073 17.3038 10.8686 16.7811 14.7281 12.9064C18.6878 8.931 19.1418 8.43759 19.4578 7.76583C20.1957 6.19778 20.1801 4.54234 19.4129 2.98997C18.4865 1.11539 16.722 0.0307777 14.599 0.0307777C12.8855 0.0307777 11.8485 0.515108 10.269 2.05336C9.37451 2.92443 9.27715 3.05989 9.27715 3.43296C9.27726 3.73356 9.34538 3.89455 9.52632 4.02115C10.0077 4.35849 10.254 4.24567 11.3531 3.18424C12.7007 1.88273 13.3231 1.57541 14.6127 1.57463C15.4113 1.57407 15.6121 1.61799 16.2532 1.93359C17.1051 2.35294 17.6994 2.96421 18.113 3.84604C18.3593 4.3716 18.4082 4.6332 18.4082 5.42798C18.4082 7.05205 18.3664 7.10952 13.9428 11.5619C11.846 13.6725 10.0742 15.3992 10.0055 15.3992C9.93682 15.3992 8.16497 13.6725 6.06823 11.5619C1.61716 7.08185 1.60125 7.05978 1.60506 5.37196C1.60719 4.44196 1.63677 4.30908 1.98598 3.6614C2.19415 3.27511 2.56521 2.77778 2.81045 2.55617C4.26143 1.24524 6.50057 1.2234 7.96118 2.50587C8.47251 2.9548 8.97163 2.95043 9.31076 2.49422C9.50346 2.23497 9.51579 2.14814 9.39994 1.8685C9.26371 1.53956 8.49178 0.888298 7.87682 0.583337C6.92149 0.109763 5.61459 -0.10501 4.62778 0.0495996ZM4.41559 2.35462C3.38688 2.73162 2.5484 3.81613 2.38461 4.98152C2.32612 5.39784 2.35615 5.5417 2.55445 5.79378C2.99229 6.35037 3.89955 6.06334 3.89955 5.36838C3.89955 4.56385 4.58331 3.80985 5.42749 3.68325C6.29039 3.55385 6.64823 2.91099 6.14026 2.40302C5.87015 2.1329 5.08097 2.11072 4.41559 2.35462Z" fill="#012433"/>
</svg>
