<svg width="14" height="10" viewBox="0 0 14 10" fill="none" xmlns="http://www.w3.org/2000/svg">
<path fill-rule="evenodd" clip-rule="evenodd" d="M1.05981 0.227644C0.796653 0.360689 0.483111 0.637504 0.304841 0.893983L0 1.33268V4.80582V8.27896L0.304841 8.71765C0.483111 8.97413 0.796653 9.25095 1.05981 9.38399C1.50973 9.61154 1.51186 9.61164 6.87991 9.61164C12.248 9.61164 12.2501 9.61154 12.7 9.38399C12.9632 9.25095 13.2767 8.97413 13.455 8.71765L13.7598 8.27896V4.80582V1.33268L13.455 0.893983C13.2767 0.637504 12.9632 0.360689 12.7 0.227644C12.2501 0.000101168 12.248 0 6.87991 0C1.51186 0 1.50973 0.000101168 1.05981 0.227644ZM9.3587 4.55399C9.3587 4.61419 5.82748 6.97167 5.59701 7.06536C5.55138 7.08398 5.51404 5.93422 5.51404 4.51039V1.92172L7.43637 3.2028C8.49365 3.90738 9.3587 4.51545 9.3587 4.55399Z" fill="#012433"/>
</svg>
